<?xml version="1.0" encoding="UTF-8" standalone="no" ?>
<!DOCTYPE svg PUBLIC "-//W3C//DTD SVG 1.1//EN" "http://www.w3.org/Graphics/SVG/1.1/DTD/svg11.dtd">
<svg xmlns="http://www.w3.org/2000/svg" xmlns:xlink="http://www.w3.org/1999/xlink" version="1.1" width="800" height="1000" viewBox="0 0 800 1000" xml:space="preserve">
<desc>Created with Fabric.js 5.2.4</desc>
<defs>
</defs>
<rect x="0" y="0" width="100%" height="100%" fill="transparent"></rect>
<g transform="matrix(Infinity NaN NaN Infinity 0 0)" id="d2030eb9-b7bd-47cb-80fc-78ddd4f41ca7"  >
</g>
<g transform="matrix(1 0 0 1 400 500)" id="83a857b1-cec2-4e68-89f5-fd11e3669f3d"  >
<rect style="stroke: none; stroke-width: 1; stroke-dasharray: none; stroke-linecap: butt; stroke-dashoffset: 0; stroke-linejoin: miter; stroke-miterlimit: 4; fill: rgb(255,255,255); fill-rule: nonzero; opacity: 1; visibility: hidden;" vector-effect="non-scaling-stroke"  x="-400" y="-500" rx="0" ry="0" width="800" height="1000" />
</g>
<g transform="matrix(9.22 0 0 9.22 400.85 502.72)"  >
<path style="stroke: none; stroke-width: 1; stroke-dasharray: none; stroke-linecap: butt; stroke-dashoffset: 0; stroke-linejoin: miter; stroke-miterlimit: 4; fill: rgb(0,0,0); fill-rule: nonzero; opacity: 1;" vector-effect="non-scaling-stroke"  transform=" translate(94.3, -274.65)" d="M -57 257.6 L -57 239.10000000000002 C -57 237.20000000000002 -57.5 235.40000000000003 -58.5 233.70000000000002 C -59.4 232.10000000000002 -60.8 230.70000000000002 -62.4 229.8 C -72.2 224.70000000000002 -83.2 222 -94.3 222 C -105.39999999999999 222 -116.3 224.7 -126.19999999999999 229.8 C -127.79999999999998 230.8 -129.2 232.10000000000002 -130.1 233.70000000000002 C -131 235.3 -131.5 237.20000000000002 -131.6 239.10000000000002 L -131.6 266.90000000000003 L -72.6 284.00000000000006 L -72.6 296.40000000000003 C -72.6 297.20000000000005 -72.89999999999999 298.00000000000006 -73.5 298.70000000000005 C -74 299.40000000000003 -74.7 299.90000000000003 -75.5 300.1 L -94.4 309.5 L -113.4 300 C -114.2 299.7 -114.80000000000001 299.2 -115.30000000000001 298.6 C -115.80000000000001 297.90000000000003 -116.10000000000001 297.20000000000005 -116.10000000000001 296.3 L -116.10000000000001 287 L -131.60000000000002 282.3 L -131.60000000000002 296.3 C -131.60000000000002 300 -130.50000000000003 303.6 -128.50000000000003 306.8 C -126.50000000000003 309.90000000000003 -123.60000000000002 312.40000000000003 -120.20000000000003 313.90000000000003 L -94.30000000000004 327.3 L -68.50000000000004 313.90000000000003 C -65.10000000000004 312.40000000000003 -62.200000000000045 309.90000000000003 -60.200000000000045 306.8 C -58.200000000000045 303.7 -57.100000000000044 300 -57.100000000000044 296.3 L -57.100000000000044 273 L -116.10000000000005 255.9 L -116.10000000000005 241.70000000000002 C -109.20000000000005 238.8 -101.80000000000005 237.3 -94.40000000000005 237.3 C -86.90000000000005 237.3 -79.50000000000004 238.8 -72.70000000000005 241.70000000000002 L -72.70000000000005 253 L -57 257.6 z" stroke-linecap="round" />
</g>
<g transform="matrix(29.4 0 0 29.4 569.86 767.5)"  >
<g style="" vector-effect="non-scaling-stroke"   >
		<g transform="matrix(1.6 0 0 1.6 0 0)"  >
<path style="stroke: none; stroke-width: 1; stroke-dasharray: none; stroke-linecap: butt; stroke-dashoffset: 0; stroke-linejoin: miter; stroke-miterlimit: 4; fill: rgb(38,196,58); fill-rule: evenodd; opacity: 1;" vector-effect="non-scaling-stroke"  transform=" translate(-5, -5)" d="M 0.366 1.415 C 0.49157603889431856 0.895887180832744 0.8968871808327431 0.4905760388943192 1.415999999999999 0.3650000000000002 C 2.1 0.195 3.258 0 5 0 C 6.74 0 7.9 0.194 8.585 0.366 C 9.110000000000001 0.497 9.503 0.89 9.635000000000002 1.416 C 9.805 2.1 10 3.258 10 5 C 10 6.74 9.806 7.9 9.634 8.585 C 9.508423961105683 9.104112819167257 9.103112819167256 9.509423961105682 8.584 9.635000000000002 C 7.9 9.805 6.742 10 5 10 C 3.26 10 2.1 9.806 1.415 9.634 C 0.8958871808327438 9.508423961105681 0.49057603889431867 9.103112819167256 0.3650000000000002 8.584 C 0.195 7.9 0 6.742 0 5 C 0 3.26 0.194 2.1 0.366 1.415 z M 8.119 4.12 C 8.461416544895092 3.7778595974798233 8.461640402520176 3.2229165448950923 8.1195 2.8805 C 7.7773595974798235 2.538083455104908 7.222416544895092 2.537859597479823 6.88 2.8799999999999994 L 4.5 5.263 L 3.6189999999999998 4.381 C 3.276859597479823 4.038859597479823 2.7221404025201763 4.038859597479823 2.38 4.381 C 2.037859597479823 4.723140402520177 2.037859597479823 5.277859597479823 2.38 5.62 L 3.88 7.12 C 4.04411717005075 7.284266645032979 4.266797553467115 7.3765632611171945 4.4990000000000006 7.3765632611171945 C 4.731202446532885 7.3765632611171945 4.95388282994925 7.284266645032978 5.118 7.12 L 8.118 4.12 z" stroke-linecap="round" />
</g>
		<g transform="matrix(1.6 0 0 1.6 0 0)"  >
<path style="stroke: none; stroke-width: 1; stroke-dasharray: none; stroke-linecap: butt; stroke-dashoffset: 0; stroke-linejoin: miter; stroke-miterlimit: 4; fill: rgb(255,255,255); fill-opacity: 0.24; fill-rule: evenodd; opacity: 1;" vector-effect="non-scaling-stroke"  transform=" translate(-5, -5)" d="M 0.366 1.415 C 0.49157603889431856 0.895887180832744 0.8968871808327431 0.4905760388943192 1.415999999999999 0.3650000000000002 C 2.1 0.195 3.258 0 5 0 C 6.74 0 7.9 0.194 8.585 0.366 C 9.110000000000001 0.497 9.503 0.89 9.635000000000002 1.416 C 9.805 2.1 10 3.258 10 5 C 10 6.74 9.806 7.9 9.634 8.585 C 9.508423961105683 9.104112819167257 9.103112819167256 9.509423961105682 8.584 9.635000000000002 C 7.9 9.805 6.742 10 5 10 C 3.26 10 2.1 9.806 1.415 9.634 C 0.8958871808327438 9.508423961105681 0.49057603889431867 9.103112819167256 0.3650000000000002 8.584 C 0.195 7.9 0 6.742 0 5 C 0 3.26 0.194 2.1 0.366 1.415 z M 8.119 4.12 C 8.461416544895092 3.7778595974798233 8.461640402520176 3.2229165448950923 8.1195 2.8805 C 7.7773595974798235 2.538083455104908 7.222416544895092 2.537859597479823 6.88 2.8799999999999994 L 4.5 5.263 L 3.6189999999999998 4.381 C 3.276859597479823 4.038859597479823 2.7221404025201763 4.038859597479823 2.38 4.381 C 2.037859597479823 4.723140402520177 2.037859597479823 5.277859597479823 2.38 5.62 L 3.88 7.12 C 4.04411717005075 7.284266645032979 4.266797553467115 7.3765632611171945 4.4990000000000006 7.3765632611171945 C 4.731202446532885 7.3765632611171945 4.95388282994925 7.284266645032978 5.118 7.12 L 8.118 4.12 z" stroke-linecap="round" />
</g>
</g>
</g>
</svg>