<svg width="1em" height="1em" viewBox="0 0 10 10" fill="none" class="tempo-icon tempo-icon--idle jss230 jss232 jss237"><path fill-rule="evenodd" clip-rule="evenodd" d="M.366 1.415a1.425 1.425 0 011.05-1.05C2.1.195 3.258 0 5 0c1.74 0 2.9.194 3.585.366.525.131.918.524 1.05 1.05C9.805 2.1 10 3.258 10 5c0 1.74-.194 2.9-.366 3.585a1.425 1.425 0 01-1.05 1.05C7.9 9.805 6.742 10 5 10c-1.74 0-2.9-.194-3.585-.366a1.425 1.425 0 01-1.05-1.05C.195 7.9 0 6.742 0 5c0-1.74.194-2.9.366-3.585zM5.8 7.525a.875.875 0 101.4-1.05L5.875 4.708V2.5a.875.875 0 10-1.75 0V5c0 .19.061.374.175.525l1.5 2z" fill="#F6B202"></path><path fill-rule="evenodd" clip-rule="evenodd" d="M.366 1.415a1.425 1.425 0 011.05-1.05C2.1.195 3.258 0 5 0c1.74 0 2.9.194 3.585.366.525.131.918.524 1.05 1.05C9.805 2.1 10 3.258 10 5c0 1.74-.194 2.9-.366 3.585a1.425 1.425 0 01-1.05 1.05C7.9 9.805 6.742 10 5 10c-1.74 0-2.9-.194-3.585-.366a1.425 1.425 0 01-1.05-1.05C.195 7.9 0 6.742 0 5c0-1.74.194-2.9.366-3.585zM5.8 7.525a.875.875 0 101.4-1.05L5.875 4.708V2.5a.875.875 0 10-1.75 0V5c0 .19.061.374.175.525l1.5 2z" fill="#fff" fill-opacity="0.24"></path></svg>