<svg width="1em" height="1em" viewBox="0 0 10 10" fill="none" class="tempo-icon tempo-icon--online jss230 jss232 jss237"><path fill-rule="evenodd" clip-rule="evenodd" d="M.366 1.415a1.425 1.425 0 011.05-1.05C2.1.195 3.258 0 5 0c1.74 0 2.9.194 3.585.366.525.131.918.524 1.05 1.05C9.805 2.1 10 3.258 10 5c0 1.74-.194 2.9-.366 3.585a1.425 1.425 0 01-1.05 1.05C7.9 9.805 6.742 10 5 10c-1.74 0-2.9-.194-3.585-.366a1.425 1.425 0 01-1.05-1.05C.195 7.9 0 6.742 0 5c0-1.74.194-2.9.366-3.585zM8.119 4.12A.875.875 0 106.88 2.88L4.5 5.263l-.881-.882A.875.875 0 002.38 5.62l1.5 1.5a.875.875 0 001.238 0l3-3z" fill="#26C43A"></path><path fill-rule="evenodd" clip-rule="evenodd" d="M.366 1.415a1.425 1.425 0 011.05-1.05C2.1.195 3.258 0 5 0c1.74 0 2.9.194 3.585.366.525.131.918.524 1.05 1.05C9.805 2.1 10 3.258 10 5c0 1.74-.194 2.9-.366 3.585a1.425 1.425 0 01-1.05 1.05C7.9 9.805 6.742 10 5 10c-1.74 0-2.9-.194-3.585-.366a1.425 1.425 0 01-1.05-1.05C.195 7.9 0 6.742 0 5c0-1.74.194-2.9.366-3.585zM8.119 4.12A.875.875 0 106.88 2.88L4.5 5.263l-.881-.882A.875.875 0 002.38 5.62l1.5 1.5a.875.875 0 001.238 0l3-3z" fill="#fff" fill-opacity="0.24"></path></svg>