<svg viewBox="0 0 10 10" width="1em" height="1em" fill="none" class="tempo-icon tempo-icon--absent jss230 jss232 jss237"><path fill-rule="evenodd" clip-rule="evenodd" d="M.366 1.415A1.423 1.423 0 011.415.366C2.1.194 3.259 0 5 0c1.741 0 2.9.194 3.585.366.524.131.918.525 1.049 1.049C9.806 2.1 10 3.259 10 5c0 1.741-.194 2.9-.366 3.585a1.424 1.424 0 01-1.049 1.049C7.9 9.806 6.741 10 5 10c-1.741 0-2.9-.194-3.585-.366A1.423 1.423 0 01.366 8.585C.194 7.9 0 6.741 0 5c0-1.741.194-2.9.366-3.585zM5 8a3 3 0 100-6 3 3 0 000 6z" fill="#A5A8AC"></path></svg>